# xmcd
#
# Track frame offsets: 
#        150
#        12287
#        24668
#        36968
#        52668
#        68874
#        82717
#        94473
#        114229
#        126310
#        141247
#        157740
#        171108
#        188783
#
# Disc length: 2680 seconds
#
# Revision: 0
# Processed by: cddbd v1.5.2PL0 Copyright (c) Steve Scherf et al.
# Submitted via: ExactAudioCopy v1.0b3
#
DISCID=ac0a760e
DTITLE=Various Artist - Compilation - Blues Essentials De Luxe cd3 - The Chic
DTITLE=ago Blues Scene
DYEAR=2013
DGENRE=Blues
TTITLE0=Elmore James - The Sky Is Crying
TTITLE1=Sonny Boy Williamson - Ninety Nine
TTITLE2=Little Walter - Juke
TTITLE3=Memphis Slim - Forty Four Blues
TTITLE4=Track - So Many Roads, So Many Trains
TTITLE5=Howlin' Wolf - Smokestack Lightnin'
TTITLE6=Koko Taylor - I'm A Little Mixed Up
TTITLE7=B.B.King and Ray Charles - Sinner´s Prayer
TTITLE8=Muddy Waters - I Can't Be Satisfied
TTITLE9=Willie Dixon - Pain In My Heart
TTITLE10=Bo Diddley - Mona
TTITLE11=Robert Johnson - Sweet Home Chicago
TTITLE12=Howlin' Wolf - Goin' Down Slow
TTITLE13=Buddy Guy - Going Home
EXTD=
EXTT0=
EXTT1=
EXTT2=
EXTT3=
EXTT4=
EXTT5=
EXTT6=
EXTT7=
EXTT8=
EXTT9=
EXTT10=
EXTT11=
EXTT12=
EXTT13=
PLAYORDER=
